<svg xmlns="http://www.w3.org/2000/svg" version="1" width="480" height="64"><defs><clipPath id="a"><rect width="160.17" height="13.93" x="49.8" y="149.23" rx="5.64" ry="6.76" fill="#fff"/></clipPath></defs><g transform="matrix(1.5592 0 0 1.8376 63.18 -254.853)" clip-path="url(#a)"><path d="M50.43 146.02h20v20h-20z" fill="#a6e6ef"/><path d="M70.2 146.02h20v20h-20z" fill="#f3f9f9"/><path d="M90.18 146.02h20v20h-20z" fill="#feaa92"/><path d="M110.1 145.96h20v20h-20z" fill="#faffc4"/><path d="M130.13 146.02h20v20h-20z" fill="#69cde5"/><path d="M150.1 146.02h20v20h-20z" fill="#7c7471"/><path d="M170.04 146.02h20v20h-20z" fill="#d8461d"/><path d="M189.98 146.02h20v20h-20z" fill="#ddff2e"/></g><path d="M123.57 0v64h348.16c4.54 0 8.27-3.6 8.27-8.08V8.08C480 3.6 476.27 0 471.73 0H123.57zm32.1 20.53h288.86c6.06 0 10.88 5 10.88 11.15v.64c0 6.13-4.8 11.12-10.87 11.12H155.68c-6.05 0-10.93-5-10.93-11.15v-.65c0-6.13 4.88-11.12 10.93-11.12z" fill="#d7d7d7"/><path d="M8.44 0C3.74 0 0 3.57 0 8v48c0 4.43 3.74 8 8.44 8H126.2V0zm33.5 10.6c.66 0 1.2.2 1.65.7.42.53.58 1.02.52 1.52 0 .75-.37 1.46-1.12 2.13-.8.8-1.76 1.22-2.9 1.22-1.8 0-2.62-.73-2.57-2.25 0-.8.47-1.53 1.4-2.25.9-.7 1.86-1.06 3-1.06zm-9.47 8c1.92 0 2.83 1.22 2.9 3.35l1.5-1.28c1.34-1.15 2.3-1.8 2.94-1.88 1.08-.06 1.8.2 2.3.9.45.72.6 1.6.5 2.66-.4 1.86-.87 4.23-1.35 7.06 0 1.33.54 1.9 1.5 1.9.43 0 1.16-.37 2.28-1.28l.16-.15c.07-.68.08-1.23.27-2.14.27-1.44.38-2.5.4-3.3.1-.54-.05-.82-.4-.82-.2 0-.68.26-1.56.87l-1.12-1.14c.16-.1 1.15-1 2.94-2.66 1.33-1.15 2.12-1.82 2.66-1.84.8-.06 1.43.27 1.93.96.5.72.73 1.57.73 2.5 0 .27.02.6-.06.88.53-.7 1.04-1.34 1.66-1.88 1.4-1.17 3.07-1.8 4.8-1.96 1.55-.14 2.56.2 3.2 1.06.53.64.8 1.6.74 2.84l.82-.62c.68-.86 1.4-1.46 2.1-1.94 1.13-.8 2.28-1.3 3.48-1.34 1.52-.16 2.67.17 3.3 1 .55.66.82 1.6.76 2.8 0 .86-.25 2.13-.65 3.73-.4 1.64-.58 2.5-.58 2.74-.08.64.03 1.13.16 1.34.16.27.5.34 1.13.34.27 0 .66-.14 1.16-.46-.05-.38-.1-.82-.06-1.22 0-2.46 1.13-4.75 3.34-6.94 2.46-2.45 5.35-3.72 8.63-3.72 3.04 0 4.66 1.27 4.84 3.72.12 1.52-.78 3.1-2.64 4.72-1.95 1.76-4.43 2.92-7.44 3.4.53.75 1.35 1.13 2.47 1.13 2.2 0 4.7-.54 7.33-1.7l.34-.14c0-.15-.1-.34-.1-.53-.15-2.6.87-5.03 2.95-7.2 2.24-2.4 5-3.6 8.37-3.6 2.13 0 3.84.73 4.96 2.12 1.07 1.32 1.48 3 1.38 5.05-.1 2.77-1.12 5.2-3.1 7.22-2 2.02-4.53 3.03-7.47 3.03-2.45 0-4.26-.8-5.6-2.34-.26-.38-.52-.8-.7-1.2l-1.07.63c-3.28 1.86-6.6 2.84-9.97 2.84-2.5 0-4.34-.88-5.4-2.5-.08-.1-.1-.28-.16-.4l-.2.18c-2.07 1.76-4.13 2.65-6.2 2.65-2.03 0-3.02-1.12-2.94-3.3 0-.97.2-2.15.56-3.54.36-1.33.5-2.44.55-3.2 0-1.13-.32-1.67-1.06-1.67-.8 0-1.74.94-2.86 2.8-1.2 1.98-1.86 3.92-1.97 5.76-.05 1.33.1 2.27.4 2.94-2.12.08-3.64-.26-4.55-1-.75-.67-1.05-1.74-1-3.3 0-.95.14-2 .4-2.92.27-1 .45-1.88.47-2.6.07-1.12-.4-1.68-1.32-1.68-.75 0-1.53.8-2.4 2.56-.94 1.76-1.5 3.6-1.6 5.47-.05 1.7.1 2.85.4 3.52-2.13.05-3.7-.35-4.6-1.28-.4-.48-.67-1.06-.8-1.78l-.6.53c-2.07 1.77-4.13 2.64-6.2 2.64-.94 0-1.7-.26-2.2-.87-.53-.62-.8-1.45-.75-2.4.05-1 .38-2.55.97-4.63.6-2.08.9-3.22.9-3.38 0-.8-.24-1.2-.77-1.2-.17 0-.73.26-1.47.8-.6 1.73-1.87 3.87-3.85 6.4-2.8 3.58-5.14 5.35-7.1 5.35-1.2 0-2.28-1.06-3.1-3.24l-1.66-6c-.62-2.2-1.35-3.3-2.07-3.3-.13 0-.6.3-1.53.95l-1-1.14c1.02-.88 2.08-1.75 3.07-2.66 1.34-1.12 2.34-1.8 3-1.84 1.6-.16 2.6.96 2.94 3.28.43 2.5.8 4.07.94 4.68.45 2.06.9 3.04 1.47 3.04.43 0 1.06-.7 1.97-2.04.88-1.33 1.32-2.33 1.37-3.03.13-1.15-.3-1.76-1.38-1.76-.53 0-.96.1-1.47.32 1-3.26 2.93-4.8 5.78-4.72zm68.16 3.82l.1.1c-1.6 0-2.94.78-3.95 2.46-.9 1.33-1.33 2.83-1.4 4.38-.06.8.05 1.4.37 2 .35.64.86.93 1.47.93 1.4 0 2.6-.8 3.62-2.4.8-1.35 1.24-2.68 1.35-4.17 0-.85-.12-1.65-.4-2.34-.25-.7-.67-.98-1.18-.98zm-17.5.56c-.94.03-1.85.68-2.8 1.9-.95 1.26-1.43 2.5-1.45 3.63-.06 0-.06.17 0 .57 1.5-.53 2.8-1.32 3.93-2.46.9-.98 1.33-1.8 1.4-2.4 0-.77-.36-1.2-1-1.22zm-4 18.06h1L77.8 52.5h-1zm24.37 0h1l-2.3 11.47h-.86l.03-.68h-.06c-.6.48-1.43.82-2.55.82-1.62 0-3.04-1-2.47-3.9l.06-.2c.56-2.83 2.25-4.06 4.28-4.06 1.03 0 1.67.28 2.07.56zm-30.16 3.44c1.75 0 3 .93 2.4 3.9l-.02.2c-.58 2.84-2.2 4.06-4.38 4.06-.92 0-1.6-.28-2-.57l-.56 2.8h-1l2.06-10.26h.94l-.12.66h.06c.62-.4 1.55-.78 2.62-.78zm11.5 0c2.18 0 3.27 1.38 2.75 3.94l-.04.22c-.5 2.54-2.28 4-4.37 4-2.17 0-3.27-1.4-2.76-3.94l.06-.22c.5-2.56 2.26-4 4.34-4zm7.2 0c.2-.02.4 0 .62 0 1.7 0 2.5.68 2.18 2.28L93.7 52.5h-.83l.04-.7h-.06c-.48.43-1.27.84-2.37.84-1.43 0-2.3-.78-2-2.2.27-1.37 1.26-2.1 2.8-2.27l2.32-.25.18-.94c.26-1.3-.25-1.66-1.66-1.66-.78 0-1.44.16-2 .3l.16-.73c.55-.22 1.12-.37 1.75-.42zm-30.6.13h1l-1.13 5.63c-.2 1.1.17 1.53 1.4 1.53.84 0 1.7-.3 2.5-.72l1.3-6.43h1l-1.6 7.9h-.87l.06-.74h-.04c-.9.5-1.87.88-2.8.88-1.53 0-2.28-.76-1.98-2.28zm23.22.7c-1.52 0-2.73 1.07-3.13 3.06l-.06.37c-.47 2.26.48 3.06 1.9 3.06 1.5 0 2.7-1.04 3.13-3.07l.06-.34c.45-2.3-.46-3.1-1.9-3.1zm-11.75.02c-1 0-1.83.36-2.34.66l-1.06 5.25c.38.3 1.06.6 1.9.6 1.65 0 2.78-.9 3.22-3.1l.07-.28c.47-2.42-.27-3.13-1.8-3.13zm27.72 0c-1.6 0-2.78.84-3.25 3.1l-.03.28c-.46 2.3.4 3.12 1.88 3.12 1 0 1.75-.4 2.25-.78l1.03-5.15c-.34-.33-1.04-.58-1.88-.58zm-7.18 3.35l-2 .22c-1.1.1-1.72.56-1.9 1.52-.18.9.36 1.4 1.37 1.4.82 0 1.6-.28 2.04-.62z" fill="#505662"/></svg>